<svg xmlns="http://www.w3.org/2000/svg" viewBox="0 0 100 85" width="100%" height="100%">
  <!-- Cloud Body: Clean Solid White -->
  <path fill="#FFFFFF" d="M26,66 L74,66 C82.8,66 90,58.8 90,50 C90,41.8 83.8,35 75.8,34.2 C74.2,21.8 63.6,12 50.5,12 C39.2,12 29.8,19.2 26.5,29.5 C16.8,30.8 9,39 9,49 C9,58.4 16.6,66 26,66 Z"/>

  <!-- Upward Deployment Arrow: Vibrant AWS Orange -->
  <path fill="#FF9900" d="M50,22 L65,39 L56,39 L56,56 L44,56 L44,39 L35,39 Z"/>

  <!-- Pipeline Track & CI/CD Nodes: Sky Blue & Orange -->
  <rect x="30" y="72" width="40" height="4" rx="2" fill="#38BDF8"/>
  <circle cx="34" cy="74" r="5" fill="#38BDF8"/>
  <circle cx="50" cy="74" r="6" fill="#FF9900"/>
  <circle cx="66" cy="74" r="5" fill="#38BDF8"/>
</svg>
